# xmcd
#
# Track frame offsets:
#	150
#	10729
#	21027
#	30745
#	46805
#	58066
#	70038
#	81685
#	93214
#	110337
#	123496
#	132623
#
# Disc length: 1958 seconds
#
# Revision: 0
# Processed by: cddbd v1.4PL0 Copyright (c) Steve Scherf et al.
# Submitted via: dBpowerAMP V4.0
#
DISCID=9d07a40c
DTITLE=Rolling Stones - Rolling Stones
DYEAR=1964
DGENRE=Blues
TTITLE0=Route 66
TTITLE1=I just Wanna make Love To You
TTITLE2=Honest I Do
TTITLE3=I Need You Baby (Mona)
TTITLE4=Now Ive Got A Witness
TTITLE5=Little By Little
TTITLE6=Im A king Bee
TTITLE7=Carol
TTITLE8=Tell Me (Your Cumming Back)
TTITLE9=Can I Get A Witness
TTITLE10=You Can Make It If U Try
TTITLE11=Walking The Dog
EXTD=
EXTT0=
EXTT1=
EXTT2=
EXTT3=
EXTT4=
EXTT5=
EXTT6=
EXTT7=
EXTT8=
EXTT9=
EXTT10=
EXTT11=
PLAYORDER=
